<svg width="36" height="36" viewBox="0 0 36 36" fill="none" xmlns="http://www.w3.org/2000/svg">
<circle cx="18" cy="18" r="18" fill="#7A7A7A" fill-opacity="0.12"/>
<path d="M18.1955 26C16.8958 26 15.7387 25.8235 14.7242 25.4705C13.7097 25.1216 12.852 24.6083 12.1512 23.9308C11.4505 23.2573 10.9167 22.4336 10.55 21.4599C10.1833 20.4861 10 19.3785 10 18.1369C10 16.9116 10.1833 15.7999 10.55 14.8018C10.9208 13.8037 11.4606 12.9476 12.1696 12.2335C12.8785 11.5154 13.7443 10.9636 14.7669 10.5782C15.7937 10.1927 16.963 10 18.2749 10C19.4891 10 20.5728 10.1765 21.5262 10.5295C22.4837 10.8825 23.2945 11.3856 23.9586 12.0388C24.6268 12.688 25.134 13.4609 25.4803 14.3576C25.8307 15.2502 26.0039 16.2381 25.9998 17.3214C26.0039 18.068 25.9387 18.7536 25.8043 19.3785C25.6698 20.0033 25.4579 20.549 25.1687 21.0156C24.8835 21.4781 24.5086 21.8453 24.0442 22.1172C23.5797 22.3849 23.0174 22.5371 22.3574 22.5736C21.8848 22.6101 21.5018 22.5756 21.2084 22.4701C20.9151 22.3647 20.691 22.2084 20.5362 22.0015C20.3854 21.7905 20.2876 21.5451 20.2428 21.2651H20.1695C20.0717 21.5086 19.8802 21.7297 19.595 21.9285C19.3098 22.1232 18.9614 22.2754 18.5499 22.3849C18.1425 22.4904 17.7086 22.529 17.2482 22.5006C16.7674 22.4722 16.3111 22.3606 15.8792 22.1658C15.4514 21.9711 15.0705 21.6891 14.7364 21.3199C14.4064 20.9507 14.1456 20.4942 13.9541 19.9506C13.7667 19.4069 13.671 18.778 13.6669 18.0639C13.671 17.3579 13.7708 16.7432 13.9663 16.2199C14.166 15.6965 14.4288 15.2562 14.7547 14.8992C15.0847 14.5422 15.4514 14.2622 15.8548 14.0593C16.2581 13.8565 16.6635 13.7266 17.071 13.6698C17.5314 13.6009 17.9673 13.6009 18.3788 13.6698C18.7903 13.7388 19.1366 13.8504 19.4178 14.0046C19.703 14.1587 19.8802 14.3251 19.9495 14.5036H20.035V13.822H21.9479V19.7619C21.952 20.0418 22.0151 20.2589 22.1374 20.4131C22.2596 20.5673 22.4246 20.6444 22.6324 20.6444C22.9135 20.6444 23.1478 20.5206 23.3352 20.2731C23.5267 20.0256 23.6693 19.6463 23.763 19.135C23.8608 18.6238 23.9097 17.9726 23.9097 17.1814C23.9097 16.4187 23.8078 15.7492 23.6041 15.1731C23.4045 14.5929 23.1234 14.0999 22.7607 13.6942C22.4022 13.2844 21.9846 12.9517 21.5079 12.6961C21.0312 12.4405 20.5138 12.2538 19.9556 12.1362C19.4015 12.0185 18.8311 11.9597 18.2444 11.9597C17.2299 11.9597 16.3437 12.1139 15.5859 12.4222C14.8281 12.7265 14.1965 13.1546 13.6913 13.7064C13.1861 14.2581 12.8072 14.9053 12.5546 15.6478C12.3061 16.3862 12.1798 17.1916 12.1757 18.0639C12.1798 19.0255 12.3142 19.8775 12.579 20.62C12.8479 21.3584 13.2432 21.9792 13.7647 22.4823C14.2862 22.9854 14.9299 23.3668 15.6959 23.6265C16.4619 23.8861 17.3419 24.016 18.336 24.016C18.8046 24.016 19.2629 23.9815 19.7111 23.9125C20.1593 23.8476 20.5647 23.7664 20.9273 23.6691C21.2899 23.5758 21.5812 23.4845 21.8012 23.3952L22.4063 25.1601C22.1496 25.3062 21.8012 25.4421 21.3612 25.5679C20.9253 25.6977 20.4323 25.8012 19.8822 25.8783C19.3363 25.9594 18.774 26 18.1955 26ZM17.9143 20.4983C18.4114 20.4983 18.8066 20.4029 19.1 20.2122C19.3974 20.0216 19.6093 19.7396 19.7356 19.3663C19.8659 18.989 19.9271 18.5244 19.9189 17.9726C19.9148 17.4857 19.8517 17.0739 19.7295 16.7372C19.6113 16.3963 19.4055 16.1387 19.1122 15.9642C18.8229 15.7857 18.4196 15.6965 17.9021 15.6965C17.4499 15.6965 17.0649 15.7918 16.7471 15.9825C16.4333 16.1732 16.193 16.441 16.0259 16.7859C15.8629 17.1267 15.7794 17.5283 15.7753 17.9909C15.7794 18.4209 15.8487 18.8287 15.9831 19.2141C16.1176 19.5955 16.3396 19.9059 16.6493 20.1453C16.9589 20.3806 17.3806 20.4983 17.9143 20.4983Z" fill="#7A7A7A"/>
</svg>
