<svg width="52" height="52" viewBox="0 0 52 52" fill="none" xmlns="http://www.w3.org/2000/svg">
<path d="M4.98779 29.8815C4.98779 27.4883 6.92789 25.5482 9.32113 25.5482H42.6786C45.0719 25.5482 47.012 27.4883 47.012 29.8816V37.3793H4.98779V29.8815Z" stroke="#3D9970" stroke-width="3" stroke-linecap="round"/>
<path d="M44.0946 24.6676V13.4538C44.0946 11.0606 42.1545 9.12048 39.7613 9.12048H12.2389C9.84562 9.12048 7.90552 11.0606 7.90552 13.4538V24.6676" stroke="#3D9970" stroke-width="3" stroke-linecap="square" stroke-linejoin="round"/>
<path d="M6.48779 37.376C6.48779 36.5475 5.81622 35.876 4.98779 35.876C4.15937 35.876 3.48779 36.5475 3.48779 37.376H6.48779ZM3.48779 43.5718V45.0718H6.48779V43.5718H3.48779ZM48.512 37.376C48.512 36.5475 47.8404 35.876 47.012 35.876C46.1836 35.876 45.512 36.5475 45.512 37.376H48.512ZM45.512 43.5718V45.0718H48.512V43.5718H45.512ZM3.48779 37.376V43.5718H6.48779V37.376H3.48779ZM45.512 37.376V43.5718H48.512V37.376H45.512Z" fill="#3D9970"/>
<path d="M35.0044 25.2531V21.5915C35.0044 19.1983 33.0643 17.2582 30.671 17.2582H21.3292C18.9359 17.2582 16.9958 19.1983 16.9958 21.5915V25.2531" stroke="#3D9970" stroke-width="3" stroke-linecap="square" stroke-linejoin="round"/>
</svg>
