<svg width="54" height="54" viewBox="0 0 54 54" fill="none" xmlns="http://www.w3.org/2000/svg">
<circle cx="27" cy="27" r="27" fill="#444444"/>
<path d="M36.5 17H18.5C17.1193 17 16 18.1233 16 19.5091V21.5163C16 21.7 16.0999 21.869 16.2605 21.9569L27.2605 27.9787C27.4098 28.0604 27.5902 28.0604 27.7395 27.9787L38.7395 21.9569C38.9001 21.869 39 21.7 39 21.5163V19.5091C39 18.1233 37.8807 17 36.5 17Z" fill="white"/>
<path d="M28.2185 29.2346C27.7712 29.4749 27.2308 29.4749 26.7835 29.2346L16.0115 23.4399L16 23.4473V33.8539C16 35.2159 17.1193 36.3199 18.5 36.3199H36.5C37.8807 36.3199 39 35.2159 39 33.8539V23.4473L38.9885 23.4404L28.2185 29.2346Z" fill="white"/>
</svg>
