<svg width="154" height="28" viewBox="0 0 154 28" fill="none" xmlns="http://www.w3.org/2000/svg">
<g clip-path="url(#clip0_878_5521)">
<path d="M86.4336 20.6661H89.7276V8.35408H86.4336V20.6661ZM86.4336 6.43411H89.7276V3.5061H86.4336V6.43411Z" fill="white"/>
<path d="M91.8516 24.6995H95.1456V19.2755H95.1936C95.8958 20.3315 97.0346 21.0276 98.778 21.0276C101.975 21.0276 104.155 18.5076 104.155 14.5236C104.155 10.6835 102.048 8.01953 98.754 8.01953C97.0586 8.01953 95.8958 8.81158 95.0969 9.89154H95.0241V8.35553H91.8516V24.6995ZM98.0759 18.3155C96.1141 18.3155 95.0728 16.8516 95.0728 14.6196C95.0728 12.4115 95.8958 10.6596 97.955 10.6596C99.9895 10.6596 100.813 12.2916 100.813 14.6196C100.813 16.9475 99.7472 18.3155 98.0759 18.3155Z" fill="white"/>
<path d="M110.727 21.0276C113.827 21.0276 115.958 19.5396 115.958 17.0675C115.958 14.1876 113.657 13.6116 111.574 13.1796C109.806 12.8196 108.159 12.7235 108.159 11.6676C108.159 10.7796 109.007 10.2996 110.291 10.2996C111.696 10.2996 112.543 10.7796 112.688 12.0996H115.667C115.426 9.62757 113.609 8.01953 110.339 8.01953C107.505 8.01953 105.277 9.29157 105.277 11.9556C105.277 14.6436 107.457 15.2435 109.685 15.6756C111.381 16.0116 112.955 16.1316 112.955 17.3076C112.955 18.1716 112.132 18.7236 110.678 18.7236C109.201 18.7236 108.183 18.0995 107.966 16.6836H104.914C105.108 19.2995 107.118 21.0276 110.727 21.0276Z" fill="white"/>
<path d="M128.461 20.6675V8.35547H125.167V15.4595C125.167 17.0915 124.222 18.2435 122.672 18.2435C121.267 18.2435 120.614 17.4515 120.614 16.0115V8.35547H117.344V16.5635C117.344 19.2515 118.894 21.0035 121.655 21.0035C123.399 21.0035 124.368 20.3555 125.215 19.2275H125.288V20.6675H128.461Z" fill="white"/>
<path d="M130.594 20.6673H133.888V13.5153C133.888 11.8833 134.784 10.8273 136.117 10.8273C137.327 10.8273 138.03 11.5473 138.03 12.9393V20.6673H141.324V13.5153C141.324 11.8833 142.171 10.8273 143.552 10.8273C144.763 10.8273 145.465 11.5473 145.465 12.9393V20.6673H148.759V12.3873C148.759 9.69929 147.282 8.01929 144.666 8.01929C143.092 8.01929 141.783 8.83528 140.936 10.1793H140.888C140.282 8.8833 139.023 8.01929 137.448 8.01929C135.729 8.01929 134.518 8.8833 133.84 10.0113H133.767V8.35529H130.594V20.6673Z" fill="white"/>
<path d="M0.581787 20.6661H3.87573V3.5061H0.581787V20.6661Z" fill="white"/>
<path d="M11.9285 21.0276C15.7795 21.0276 18.4195 18.1956 18.4195 14.5236C18.4195 10.8515 15.7795 8.01953 11.9285 8.01953C8.07748 8.01953 5.4375 10.8515 5.4375 14.5236C5.4375 18.1956 8.07748 21.0276 11.9285 21.0276ZM11.9285 18.5316C9.89405 18.5316 8.77988 16.9235 8.77988 14.5236C8.77988 12.1236 9.89405 10.4916 11.9285 10.4916C13.9388 10.4916 15.0771 12.1236 15.0771 14.5236C15.0771 16.9235 13.9388 18.5316 11.9285 18.5316Z" fill="white"/>
<path d="M25.4269 24.8675C27.2676 24.8675 28.8662 24.4356 29.9076 23.4755C30.828 22.6355 31.3851 21.4595 31.3851 19.7316V8.35553H28.2123V9.65158H28.1638C27.4129 8.61957 26.2746 8.01953 24.7245 8.01953C21.5759 8.01953 19.3477 10.3715 19.3477 14.0435C19.3477 17.7635 22.0603 19.9235 24.8214 19.9235C26.3957 19.9235 27.3403 19.2995 28.0669 18.4835H28.1396V19.8275C28.1396 21.5075 27.2434 22.3956 25.3785 22.3956C23.8526 22.3956 23.1502 21.7955 22.8838 21.0276H19.614C19.9531 23.4276 22.0361 24.8675 25.4269 24.8675ZM25.3785 17.3076C23.683 17.3076 22.5689 16.0835 22.5689 13.9956C22.5689 11.9316 23.683 10.6356 25.3542 10.6356C27.3403 10.6356 28.3091 12.1716 28.3091 13.9716C28.3091 15.7955 27.4614 17.3076 25.3785 17.3076Z" fill="white"/>
<path d="M39.3895 21.0276C43.2405 21.0276 45.8805 18.1956 45.8805 14.5236C45.8805 10.8515 43.2405 8.01953 39.3895 8.01953C35.5385 8.01953 32.8984 10.8515 32.8984 14.5236C32.8984 18.1956 35.5385 21.0276 39.3895 21.0276ZM39.3895 18.5316C37.355 18.5316 36.2409 16.9235 36.2409 14.5236C36.2409 12.1236 37.355 10.4916 39.3895 10.4916C41.3997 10.4916 42.5381 12.1236 42.5381 14.5236C42.5381 16.9235 41.3997 18.5316 39.3895 18.5316Z" fill="white"/>
<path d="M149.957 6.33398C149.957 5.7817 150.409 5.33398 150.967 5.33398H152.985C153.542 5.33398 153.994 5.7817 153.994 6.33398C153.994 6.88627 153.542 7.33399 152.985 7.33399H150.967C150.409 7.33399 149.957 6.88627 149.957 6.33398Z" fill="white"/>
<path fill-rule="evenodd" clip-rule="evenodd" d="M66.1284 0C73.9311 0 80.2571 6.26802 80.2571 14C80.2571 21.732 73.9311 28 66.1284 28C58.3255 28 52 21.732 52 14C52 6.26802 58.3255 0 66.1284 0ZM65.6178 1.04761C64.0059 1.27238 62.4712 2.55576 61.2798 4.70218C60.9342 5.32478 60.6224 6.01262 60.3507 6.75531C61.9707 6.35192 63.7502 6.11409 65.6178 6.07731V1.04761ZM59.1565 7.09156C59.4945 6.04071 59.9078 5.07388 60.3849 4.21445C60.9754 3.15041 61.6764 2.23156 62.4661 1.52584C58.1718 2.76166 54.787 6.11575 53.5398 10.371C54.252 9.58846 55.1793 8.89392 56.2531 8.30872C57.1204 7.83601 58.0961 7.42637 59.1565 7.09156ZM58.8173 8.27477C58.4101 9.88001 58.1702 11.6434 58.133 13.494H53.0572C53.284 11.8968 54.5791 10.376 56.7453 9.19548C57.3736 8.85304 58.0677 8.54406 58.8173 8.27477ZM59.1546 13.494C59.1967 11.4744 59.4902 9.57838 59.9756 7.90314C61.6663 7.4221 63.5797 7.13132 65.6178 7.08953V9.27556C64.8574 11.2043 63.3067 12.7408 61.3602 13.494H59.1546ZM58.133 14.506H53.0572C53.284 16.1032 54.5791 17.624 56.7453 18.8045C57.3736 19.147 58.0677 19.4559 58.8173 19.7252C58.4101 18.12 58.1702 16.3566 58.133 14.506ZM59.9756 20.0969C59.4902 18.4216 59.1967 16.5256 59.1546 14.506H61.3602C63.3067 15.2592 64.8574 16.7957 65.6178 18.7244V20.9105C63.5797 20.8687 61.6663 20.5779 59.9756 20.0969ZM59.1565 20.9084C58.0961 20.5736 57.1204 20.164 56.2531 19.6913C55.1793 19.1061 54.252 18.4115 53.5398 17.629C54.787 21.8842 58.1718 25.2384 62.4661 26.4741C61.6764 25.7684 60.9754 24.8496 60.3849 23.7855C59.9078 22.9261 59.4945 21.9593 59.1565 20.9084ZM65.6178 26.9524C64.0059 26.7276 62.4712 25.4442 61.2798 23.2978C60.9342 22.6752 60.6224 21.9873 60.3507 21.2447C61.9707 21.6481 63.7502 21.8859 65.6178 21.9227V26.9524ZM69.7907 26.4741C70.5805 25.7684 71.2813 24.8496 71.8719 23.7855C72.3487 22.9261 72.7627 21.9593 73.1003 20.9084C74.1607 20.5736 75.1362 20.164 76.0037 19.6913C77.0775 19.1061 78.005 18.4115 78.7171 17.629C77.4695 21.8842 74.0851 25.2384 69.7907 26.4741ZM71.9065 21.2447C71.6345 21.9873 71.3223 22.6752 70.9768 23.2978C69.7857 25.4442 68.2509 26.7276 66.639 26.9524V21.9227C68.5066 21.8859 70.2862 21.6481 71.9065 21.2447ZM73.4394 19.7252C74.1889 19.4559 74.8833 19.147 75.5114 18.8045C77.6779 17.624 78.9728 16.1032 79.1996 14.506H74.1239C74.0865 16.3566 73.8463 18.12 73.4394 19.7252ZM73.1024 14.506C73.0601 16.5256 72.7669 18.4216 72.2809 20.0969C70.5906 20.5779 68.6771 20.8687 66.639 20.9105V18.726C67.3992 16.7966 68.9502 15.2594 70.8973 14.506H73.1024ZM74.1239 13.494H79.1996C78.9728 11.8968 77.6779 10.376 75.5114 9.19548C74.8833 8.85304 74.1889 8.54406 73.4394 8.27477C73.8463 9.88001 74.0865 11.6434 74.1239 13.494ZM72.2809 7.90314C72.7669 9.57838 73.0601 11.4744 73.1024 13.494H70.8974C68.9502 12.7406 67.3992 11.2034 66.639 9.27395V7.08953C68.6771 7.13132 70.5906 7.4221 72.2809 7.90314ZM73.1003 7.09156C74.1607 7.42637 75.1362 7.83601 76.0037 8.30872C77.0775 8.89392 78.005 9.58846 78.7171 10.371C77.4695 6.11575 74.0851 2.76166 69.7907 1.52584C70.5805 2.23156 71.2813 3.15041 71.8719 4.21445C72.3487 5.07388 72.7627 6.04071 73.1003 7.09156ZM66.639 1.04761C68.2509 1.27238 69.7857 2.55576 70.9768 4.70218C71.3223 5.32479 71.6345 6.01262 71.9065 6.75531C70.2862 6.35192 68.5066 6.11409 66.639 6.07731V1.04761Z" fill="#3D9970"/>
</g>
<defs>
<clipPath id="clip0_878_5521">
<rect width="154" height="28" fill="white"/>
</clipPath>
</defs>
</svg>
