<svg width="54" height="54" viewBox="0 0 54 54" fill="none" xmlns="http://www.w3.org/2000/svg">
<circle cx="27" cy="27" r="27" fill="#444444"/>
<path fill-rule="evenodd" clip-rule="evenodd" d="M19 23.8111C19 18.6088 23.0678 15.5 27 15.5C30.9322 15.5 35 18.6088 35 23.8111C35 29.3282 27.6461 37.0316 27.3327 37.3568C27.2447 37.4487 27.1247 37.5 27 37.5C26.8753 37.5 26.7553 37.4487 26.6673 37.3568C26.3539 37.0316 19 29.3282 19 23.8111ZM24.1765 23.8111C24.1765 25.4288 25.4428 26.7444 27 26.7444C28.5572 26.7444 29.8235 25.4288 29.8235 23.8111C29.8235 22.1934 28.5572 20.8778 27 20.8778C25.4428 20.8778 24.1765 22.1934 24.1765 23.8111Z" fill="white"/>
</svg>
