<svg width="54" height="54" viewBox="0 0 54 54" fill="none" xmlns="http://www.w3.org/2000/svg">
<circle cx="27" cy="27" r="27" fill="#444444"/>
<path d="M31.3564 30.2045L29.4818 32.5479C26.5784 30.8418 24.1588 28.4225 22.4524 25.5192L24.7954 23.6447C25.3604 23.1928 25.5494 22.4166 25.2554 21.7556L23.1194 16.9465C22.8029 16.2339 22.0172 15.8552 21.2626 16.0515L17.1972 17.1054C16.4118 17.3102 15.9039 18.0703 16.0153 18.8743C17.4819 29.3133 25.6866 37.518 36.1259 38.9848C36.9299 39.0959 37.6898 38.5881 37.8949 37.8029L38.9488 33.7366C39.1444 32.9823 38.7658 32.1971 38.0538 31.8804L33.2456 29.7471C32.585 29.4529 31.8092 29.6408 31.3564 30.2045Z" fill="white"/>
</svg>
