<svg width="36" height="36" viewBox="0 0 36 36" fill="none" xmlns="http://www.w3.org/2000/svg">
<circle cx="18" cy="18" r="18" fill="#7A7A7A" fill-opacity="0.12"/>
<g clip-path="url(#clip0_935_2240)">
<path d="M24.5379 14.7878C24.5441 14.9286 24.5441 15.063 24.5441 15.2038C24.5503 19.4726 21.414 24.4006 15.6785 24.4006C13.9868 24.4006 12.3261 23.895 10.8999 22.9478C11.1469 22.9798 11.3938 22.9926 11.6408 22.9926C13.0422 22.9926 14.4066 22.5062 15.5118 21.6038C14.1782 21.5782 13.0052 20.6758 12.5977 19.3574C13.0669 19.4534 13.5485 19.4342 14.0053 19.2998C12.5545 19.0054 11.5111 17.6806 11.5049 16.1382C11.5049 16.1254 11.5049 16.1126 11.5049 16.0998C11.9371 16.3494 12.4248 16.4902 12.9187 16.503C11.5543 15.5558 11.1283 13.6678 11.9556 12.1893C13.5423 14.2118 15.876 15.4342 18.3826 15.5686C18.1295 14.4486 18.4752 13.271 19.284 12.4773C20.5373 11.2549 22.5129 11.3189 23.6983 12.6181C24.3959 12.4773 25.0689 12.2085 25.6801 11.8309C25.4455 12.5797 24.9577 13.2134 24.3095 13.6166C24.9269 13.5398 25.5319 13.367 26.0999 13.1109C25.6801 13.7638 25.1491 14.327 24.5379 14.7878Z" fill="#7A7A7A"/>
</g>
<defs>
<clipPath id="clip0_935_2240">
<rect x="10.5" y="10" width="16" height="16" rx="4" fill="white"/>
</clipPath>
</defs>
</svg>
