<svg width="52" height="52" viewBox="0 0 52 52" fill="none" xmlns="http://www.w3.org/2000/svg">
<g clip-path="url(#clip0_934_1239)">
<path d="M39.598 23.8571L40.3239 25.1698V22.5444L39.598 23.8571ZM19.799 34.8056L19.0731 36.1182L19.799 36.5196L20.5249 36.1182L19.799 34.8056ZM0 23.8571L-0.725881 22.5444V25.1698L0 23.8571ZM38.8721 22.5444L19.0731 33.4929L20.5249 36.1182L40.3239 25.1698L38.8721 22.5444ZM20.5249 33.4929L0.725881 22.5444L-0.725881 25.1698L19.0731 36.1182L20.5249 33.4929ZM30.5219 20.5523L38.8721 25.1698L40.3239 22.5444L31.9737 17.927L30.5219 20.5523ZM0.725881 25.1698L9.07606 20.5523L7.6243 17.927L-0.725881 22.5444L0.725881 25.1698Z" fill="#3D9970"/>
<path d="M19.799 3.56201L20.5249 2.24934L19.799 1.84795L19.0731 2.24934L19.799 3.56201ZM39.598 14.5105L40.3239 15.8231V13.1978L39.598 14.5105ZM19.799 25.4589L19.0731 26.7716L19.799 27.173L20.5249 26.7716L19.799 25.4589ZM0 14.5105L-0.725881 13.1978V15.8231L0 14.5105ZM19.0731 4.87468L38.8721 15.8231L40.3239 13.1978L20.5249 2.24934L19.0731 4.87468ZM38.8721 13.1978L19.0731 24.1463L20.5249 26.7716L40.3239 15.8231L38.8721 13.1978ZM20.5249 24.1463L0.725881 13.1978L-0.725881 15.8231L19.0731 26.7716L20.5249 24.1463ZM0.725881 15.8231L20.5249 4.87468L19.0731 2.24934L-0.725881 13.1978L0.725881 15.8231Z" fill="#3D9970"/>
<path d="M1.58984 41.5097L1.58984 43.6073M1.58984 45.7049L1.58984 43.6073M39.5977 41.5094V43.607M39.5977 45.7046V43.607M39.5977 43.607L1.58984 43.6073" stroke="#3D9970" stroke-width="3" stroke-linecap="square"/>
<path d="M44.8433 34.8055L46.9409 34.8055M49.0385 34.8055L46.9409 34.8055M44.843 6.2951L46.9406 6.2951M49.0382 6.2951L46.9406 6.2951M46.9406 6.2951L46.9409 34.8055" stroke="#3D9970" stroke-width="3" stroke-linecap="square"/>
</g>
<defs>
<clipPath id="clip0_934_1239">
<rect width="52" height="52" fill="white"/>
</clipPath>
</defs>
</svg>
