<svg width="36" height="36" viewBox="0 0 36 36" fill="none" xmlns="http://www.w3.org/2000/svg">
<circle cx="18" cy="18" r="18" fill="white"/>
<g clip-path="url(#clip0_878_5537)">
<path d="M24.538 14.7871C24.5442 14.9279 24.5442 15.0623 24.5442 15.2031C24.5504 19.472 21.4141 24.4 15.6786 24.4C13.9869 24.4 12.3262 23.8944 10.9 22.9472C11.147 22.9792 11.3939 22.992 11.6409 22.992C13.0423 22.992 14.4068 22.5056 15.5119 21.6032C14.1783 21.5776 13.0053 20.6752 12.5978 19.3568C13.067 19.4528 13.5486 19.4336 14.0055 19.2992C12.5546 19.0048 11.5112 17.68 11.5051 16.1375C11.5051 16.1247 11.5051 16.1119 11.5051 16.0991C11.9372 16.3488 12.425 16.4896 12.9189 16.5024C11.5545 15.5551 11.1285 13.6671 11.9558 12.1887C13.5424 14.2111 15.8761 15.4335 18.3827 15.5679C18.1296 14.4479 18.4753 13.2703 19.2841 12.4767C20.5374 11.2543 22.513 11.3183 23.6984 12.6175C24.396 12.4767 25.069 12.2079 25.6802 11.8303C25.4456 12.5791 24.9579 13.2127 24.3096 13.6159C24.927 13.5391 25.532 13.3663 26.1 13.1103C25.6802 13.7631 25.1493 14.3263 24.538 14.7871Z" fill="#3D9970"/>
</g>
<defs>
<clipPath id="clip0_878_5537">
<rect x="10.5" y="10" width="16" height="16" rx="4" fill="white"/>
</clipPath>
</defs>
</svg>
