<svg width="36" height="36" viewBox="0 0 36 36" fill="none" xmlns="http://www.w3.org/2000/svg">
<circle cx="18" cy="18" r="18" fill="white"/>
<g clip-path="url(#clip0_878_5543)">
<path d="M17.4967 10C13.0738 10 9.5 13.5804 9.5 17.9967C9.5 21.3863 11.6061 24.2822 14.581 25.4471C14.5086 24.8153 14.4494 23.8412 14.6074 23.1501C14.7522 22.5249 15.542 19.1748 15.542 19.1748C15.542 19.1748 15.305 18.6944 15.305 17.9901C15.305 16.8778 15.95 16.0485 16.753 16.0485C17.4375 16.0485 17.7666 16.5619 17.7666 17.174C17.7666 17.8585 17.3322 18.8852 17.1018 19.8396C16.9109 20.636 17.5033 21.2875 18.2865 21.2875C19.7081 21.2875 20.8007 19.7869 20.8007 17.6281C20.8007 15.7129 19.4251 14.3768 17.4572 14.3768C15.18 14.3768 13.8439 16.0814 13.8439 17.8453C13.8439 18.5298 14.1072 19.267 14.4362 19.6684C14.5021 19.7474 14.5086 19.8198 14.4889 19.8988C14.4297 20.1489 14.2914 20.6952 14.2651 20.8071C14.2322 20.9519 14.1466 20.9848 13.9953 20.9124C13.008 20.4385 12.3893 18.9774 12.3893 17.8058C12.3893 15.2851 14.219 12.9683 17.6744 12.9683C20.4453 12.9683 22.6041 14.9428 22.6041 17.5886C22.6041 20.3464 20.8665 22.5644 18.4576 22.5644C17.6481 22.5644 16.8846 22.1432 16.6279 21.6429C16.6279 21.6429 16.2264 23.1699 16.1277 23.545C15.95 24.2427 15.463 25.1115 15.1339 25.6446C15.8842 25.8749 16.674 26 17.5033 26C21.9196 26 25.5 22.4196 25.5 18.0033C25.4934 13.5804 21.913 10 17.4967 10Z" fill="#3D9970"/>
</g>
<defs>
<clipPath id="clip0_878_5543">
<rect x="9.5" y="10" width="16" height="16" rx="4" fill="white"/>
</clipPath>
</defs>
</svg>
