<svg width="36" height="36" viewBox="0 0 36 36" fill="none" xmlns="http://www.w3.org/2000/svg">
<circle cx="18" cy="18" r="18" fill="#7A7A7A" fill-opacity="0.12"/>
<g clip-path="url(#clip0_935_2243)">
<path d="M10 12.1345C10 11.6196 10.1802 11.1949 10.5405 10.8603C10.9009 10.5257 11.3694 10.3584 11.9459 10.3584C12.5122 10.3584 12.9704 10.5231 13.3205 10.8526C13.6808 11.1924 13.861 11.6351 13.861 12.1808C13.861 12.675 13.686 13.0868 13.3359 13.4163C12.9756 13.7561 12.5019 13.926 11.9151 13.926H11.8996C11.3333 13.926 10.8752 13.7561 10.5251 13.4163C10.175 13.0765 10 12.6493 10 12.1345ZM10.2008 25.648V15.3314H13.6293V25.648H10.2008ZM15.529 25.648H18.9575V19.8874C18.9575 19.527 18.9987 19.249 19.0811 19.0534C19.2252 18.7033 19.444 18.4073 19.7375 18.1653C20.0309 17.9234 20.399 17.8024 20.8417 17.8024C21.9949 17.8024 22.5714 18.5798 22.5714 20.1345V25.648H26V19.7329C26 18.2091 25.6396 17.0534 24.9189 16.2657C24.1982 15.4781 23.2458 15.0843 22.0618 15.0843C20.7336 15.0843 19.6988 15.6557 18.9575 16.7986V16.8294H18.9421L18.9575 16.7986V15.3314H15.529C15.5495 15.6608 15.5598 16.6853 15.5598 18.4047C15.5598 20.1242 15.5495 22.5386 15.529 25.648Z" fill="#7A7A7A"/>
</g>
<defs>
<clipPath id="clip0_935_2243">
<rect width="16" height="16" fill="white" transform="translate(10 10)"/>
</clipPath>
</defs>
</svg>
